<svg id="sec" width="330" height="25" version="1.1" viewBox="0 0 87.312 6.6146" xmlns="http://www.w3.org/2000/svg">
 <path d="m0.39326 3.0106e-6c-0.21768 0.0017208-0.39327 0.16909-0.39326 0.37465 0 0.20678 0.17739 0.37414 0.39636 0.37414 0.030046-1.7701e-4 0.060168-0.0037722 0.0894-0.010335 0.44665 0.65343 0.66472 1.3147 0.66559 1.9229-0.37335 0.062776-0.67231 0.3194-0.67231 0.65371-8e-8 0.3343 0.29896 0.59196 0.67231 0.65474-0.00162 0.6035-0.21698 1.2596-0.65732 1.9079-0.03185-0.0077-0.064792-0.011824-0.097668-0.011885-0.21897-5e-7 -0.39636 0.16736-0.39636 0.37414 0 0.20678 0.17739 0.37465 0.39636 0.37465 0.21897 0 0.39636-0.16787 0.39636-0.37465-3.3337e-4 -0.032157-0.0049628-0.064066-0.013953-0.095085 1.2166-1.1517 2.7549-1.6041 4.5263-1.6857 1.8881-0.086913 4.0242 0.24356 6.2348 0.57516 4.1593 0.62393 8.6043 1.2473 12.171-1.0382h47.425c0.31227 1.0301 1.3113 1.7843 2.4986 1.7844 1.0423 1.807e-4 1.9394-0.5814 2.3549-1.4201a2.0064 1.9017 0 0 0 1.6211 0.78135 2.0064 1.9017 0 0 0 1.7973-1.0557c1.2031 0.27279 2.4156 0.10599 3.6478-0.14314 1.3574-0.27445 4.2566-0.62839 4.2566-0.62839s-3.0042-0.52-4.2566-0.77773c-0.84839-0.17153-1.6877-0.30609-2.5208-0.28422-0.37747 0.00991-0.75379 0.052225-1.1291 0.13746a2.0064 1.9017 0 0 0-1.7952-1.0516 2.0064 1.9017 0 0 0-1.666 0.84233c-0.43328-0.79143-1.3042-1.3329-2.3099-1.3327-1.1638 6.778e-5 -2.1484 0.72409-2.481 1.7229h-47.543c-3.5498-2.2105-7.9502-1.5953-12.071-0.9772-2.2105 0.3316-4.3466 0.66465-6.2348 0.57774-1.7732-0.081623-3.3123-0.53504-4.5294-1.6893 0.011306-0.034891 0.016856-0.071001 0.017053-0.10749-2e-8 -0.20678-0.17739-0.37465-0.39636-0.37465-0.001101-4.3127e-6 -2e-3 -3.7042e-6 -0.003101 0zm73.242 1.6717c0.95722-7.2e-5 1.7334 0.73553 1.7332 1.6428 1.27e-4 0.90727-0.776 1.6423-1.7332 1.6423-0.95723 6.98e-5 -1.7328-0.73501-1.7327-1.6423-1.27e-4 -0.90727 0.77549-1.6429 1.7327-1.6428zm3.9579 0.26562a1.3744 1.3026 0 0 1 0.0181 0 1.3744 1.3026 0 0 1 1.3746 1.3028 1.3744 1.3026 0 0 1-1.3746 1.3028 1.3744 1.3026 0 0 1-1.3746-1.3028 1.3744 1.3026 0 0 1 1.3565-1.3028zm-76.265 0.97668c0.32762 0 0.56276 0.19654 0.56276 0.40101 0 0.20447-0.23514 0.39791-0.56276 0.39791-0.32762-5e-7 -0.56482-0.19344-0.56482-0.39791-5e-8 -0.20447 0.23721-0.40101 0.56482-0.40101z" color="#000000" color-rendering="auto" dominant-baseline="auto" image-rendering="auto" shape-rendering="auto" solid-color="#000000" stop-color="#000000" style="font-feature-settings:normal;font-variant-alternates:normal;font-variant-caps:normal;font-variant-east-asian:normal;font-variant-ligatures:normal;font-variant-numeric:normal;font-variant-position:normal;font-variation-settings:normal;inline-size:0;isolation:auto;mix-blend-mode:normal;shape-margin:0;shape-padding:0;text-decoration-color:#000000;text-decoration-line:none;text-decoration-style:solid;text-indent:0;text-orientation:mixed;text-transform:none;white-space:normal" fill="darkblue"/>
</svg>
