<svg width="158.75mm" height="158.75mm" version="1.1" viewBox="0 0 158.75 158.75" xmlns="http://www.w3.org/2000/svg">
 <defs>
  <filter id="filter1134" x="-9.8391e-6" y="-2.4598e-6" width="1" height="1" color-interpolation-filters="sRGB">
   <feGaussianBlur stdDeviation="3.4514825e-06"/>
  </filter>
  <filter id="filter1130" x="-.0181" y="-.017963" width="1.0362" height="1.0359" color-interpolation-filters="sRGB">
   <feGaussianBlur stdDeviation="1.0612422"/>
  </filter>
  <filter id="filter1165" x="-.013768" y="-.01063" width="1.0275" height="1.0213" color-interpolation-filters="sRGB">
   <feGaussianBlur stdDeviation="0.59459798"/>
  </filter>
  <linearGradient id="linearGradient1177" x1="87" x2="74.505" y1="84.059" y2="84.123" gradientTransform="matrix(.85228 -.52308 .74016 .67243 -262.3 -25.424)" gradientUnits="userSpaceOnUse">
   <stop stop-color="#fff" offset="0"/>
   <stop stop-color="#fff" stop-opacity="0" offset="1"/>
  </linearGradient>
  <filter id="filter1258" x="-.038326" y="-.040029" width="1.1" height="1.1211" color-interpolation-filters="sRGB">
   <feGaussianBlur stdDeviation="0.64589268"/>
  </filter>
 </defs>
 <g transform="matrix(1 0 0 1 -.0097149 .0050706)">
  <path id="back" d="m79.374 151.87a72.496 72.495 0 0 1-72.496-72.495 72.496 72.495 0 0 1 72.496-72.495 72.496 72.495 0 0 1 72.496 72.495 72.496 72.495 0 0 1-72.496 72.495z" fill="#fff" stroke-width="1.0768"/>
  <g shape-rendering="auto">
   <path transform="matrix(1.0052 0 0 .99549 261.31 38.121)" d="m-181.66-31.076c-40.237 1e-6 -72.891 32.916-72.891 73.428 0 40.512 32.654 73.426 72.891 73.426 40.237 0 72.891-32.914 72.891-73.426 0-40.512-32.654-73.428-72.891-73.428zm0 5.0645c37.48 1e-6 67.828 30.567 67.828 68.363 0 37.796-30.349 68.363-67.828 68.363-37.48 0-67.826-30.567-67.826-68.363 0-37.796 30.347-68.363 67.826-68.363z" color="#000000" color-rendering="auto" dominant-baseline="auto" filter="url(#filter1130)" image-rendering="auto" opacity=".35161" solid-color="#000000" stop-color="#000000" style="font-feature-settings:normal;font-variant-alternates:normal;font-variant-caps:normal;font-variant-east-asian:normal;font-variant-ligatures:normal;font-variant-numeric:normal;font-variant-position:normal;font-variation-settings:normal;inline-size:0;isolation:auto;mix-blend-mode:normal;shape-margin:0;shape-padding:0;text-decoration-color:#000000;text-decoration-line:none;text-decoration-style:solid;text-indent:0;text-orientation:mixed;text-transform:none;white-space:normal"/>
   <path transform="matrix(0 1.6964 -1.6963 0 317.25 -81.569)" d="m94.871 93.438c-25.81-1e-6 -46.789 20.981-46.789 46.791-1e-6 25.81 20.979 46.791 46.789 46.791s46.791-20.981 46.791-46.791-20.981-46.791-46.791-46.791zm0 5.3945c22.895 2e-6 41.396 18.502 41.396 41.396s-18.502 41.396-41.396 41.396c-22.895 0-41.395-18.502-41.395-41.396 2e-6 -22.895 18.5-41.396 41.395-41.396z" color="#000000" color-rendering="auto" dominant-baseline="auto" fill="#00f" fill-opacity=".98795" filter="url(#filter1134)" image-rendering="auto" solid-color="#000000" stop-color="#000000" style="font-feature-settings:normal;font-variant-alternates:normal;font-variant-caps:normal;font-variant-east-asian:normal;font-variant-ligatures:normal;font-variant-numeric:normal;font-variant-position:normal;font-variation-settings:normal;inline-size:0;isolation:auto;mix-blend-mode:normal;shape-margin:0;shape-padding:0;text-decoration-color:#000000;text-decoration-line:none;text-decoration-style:solid;text-indent:0;text-orientation:mixed;text-transform:none;white-space:normal"/>
   <path transform="matrix(-.99367 0 0 -.98972 158.76 158.51)" d="m80.634 5.2352c-10.692 0-20.842 2.3817-29.977 6.6528a73.68 75.624 0 0 1 10.697-3.0114c6.1335-1.7584 12.599-2.7014 19.279-2.7014 39.489 0 71.491 32.846 71.491 73.376 0 17.118-5.7088 32.865-15.279 45.346a73.68 75.624 0 0 1-6.7241 8.8921c14.103-13.56 22.919-32.843 22.919-54.238 0-41.038-32.423-74.316-72.407-74.316z" color="#000000" color-rendering="auto" dominant-baseline="auto" fill="#fff" filter="url(#filter1165)" image-rendering="auto" solid-color="#000000" stop-color="#000000" style="font-feature-settings:normal;font-variant-alternates:normal;font-variant-caps:normal;font-variant-east-asian:normal;font-variant-ligatures:normal;font-variant-numeric:normal;font-variant-position:normal;font-variation-settings:normal;inline-size:0;isolation:auto;mix-blend-mode:normal;shape-margin:0;shape-padding:0;text-decoration-color:#000000;text-decoration-line:none;text-decoration-style:solid;text-indent:0;text-orientation:mixed;text-transform:none;white-space:normal"/>
  </g>
  <path transform="matrix(1 0 0 .99999 260.59 37.27)" d="m-129.94-15.024c18.555 20.116 16.749 25.655 15.565 26.055-1.0491 0.6439 0.78964-8.0834-17.565-25.655-14.045-11.951-34.217-17.469-33.456-18.078 14.923 4.5946 18.511 4.1739 35.457 17.679z" fill="url(#linearGradient1177)" filter="url(#filter1258)"/>
  <g transform="matrix(1 0 0 .99999 -.0047 .010188)" fill="#00f">
   <g transform="matrix(0,1.6964,-1.6963,0,317.25,-81.593)" filter="url(#filter1134)" stroke-width=".26458" aria-label="9">
    <path d="m63.525 139.64q0 1.2413-0.79826 2.1799-0.78072 0.92107-2.2106 1.3334l-0.09649-0.13596q1.3948-0.56142 1.9606-1.5965 0.28071-0.51756 0.38159-1.1711-0.6623 0.52194-1.2763 0.52194-0.90792 0-1.3728-0.82897-0.21492-0.38159-0.21492-0.82458 0-0.53949 0.29387-1 0.29825-0.46054 0.78949-0.67546 0.3158-0.14035 0.66668-0.14035 1.136 0 1.6404 1.1228 0.23685 0.52633 0.23685 1.2149zm-0.67107-0.17983q0-1.3421-0.63159-1.8027-0.27632-0.20176-0.59212-0.20176-0.6623 0-0.92546 0.73247-0.13158 0.35966-0.13158 0.84213 0 0.58773 0.22808 1.0044 0.28071 0.52194 0.8202 0.52194 0.57019 0 1.1886-0.54826 0.04386-0.19737 0.04386-0.54826z" stroke-width=".26458"/>
   </g>
   <path transform="matrix(0,1.6964,-1.6963,0,317.25,-81.593)" d="m94.468 101.54h0.8419v3.3676h-0.8419z" filter="url(#filter1134)"/>
   <path transform="matrix(-.84816 1.4691 -1.4691 -.84818 317.25 -81.593)" d="m152.04 35.351h0.46772v3.3676h-0.46772z" filter="url(#filter1134)"/>
   <path transform="matrix(0,1.6964,-1.6963,0,317.25,-81.593)" d="m94.451 175.54h0.8419v3.3676h-0.8419z" filter="url(#filter1134)"/>
   <path transform="matrix(-1.6963,0,0,-1.6964,317.25,-81.593)" d="m139.81-133.51h0.8419v3.3676h-0.8419z" filter="url(#filter1134)"/>
   <path transform="matrix(-.84816 -1.4691 -1.4691 .84818 317.25 -81.593)" d="m-12.281 204.17h0.46772v3.3676h-0.46772z" filter="url(#filter1134)"/>
   <path transform="matrix(-1.4691 -.84818 -.84816 1.4691 317.25 -81.593)" d="m73.772 187.58h0.46772v3.3676h-0.46772z" filter="url(#filter1134)"/>
   <path transform="matrix(-1.4691 .84818 -.84816 -1.4691 317.25 -81.593)" d="m168.64-50.702h0.46772v3.3676h-0.46772z" filter="url(#filter1134)"/>
   <path transform="matrix(-.17672 1.6871 -1.6871 -.17672 317.25 -81.593)" d="m108.84 92.153h0.26458v2.1167h-0.26458z" filter="url(#filter1134)"/>
   <path transform="matrix(-.31382 1.6671 -1.6671 -.31382 317.25 -81.593)" d="m119.89 82.818h0.26459v2.1167h-0.26459z" filter="url(#filter1134)"/>
   <path transform="matrix(-.53372 1.6102 -1.6102 -.53372 317.25 -81.593)" d="m133.83 65.821h0.26458v2.1167h-0.26458z" filter="url(#filter1134)"/>
   <path transform="matrix(-.6954 1.5473 -1.5472 -.69542 317.25 -81.593)" d="m143.76 51.559h0.26459v2.1167h-0.26459z" filter="url(#filter1134)"/>
   <path transform="matrix(-1.023,1.3532,-1.3531,-1.023,317.25,-81.593)" d="m159.42 17.233h0.26459v2.1167h-0.26459z" filter="url(#filter1134)"/>
   <path transform="matrix(-1.1349,1.2608,-1.2608,-1.135,317.25,-81.593)" d="m164.2 3.3058h0.26458v2.1167h-0.26458z" filter="url(#filter1134)"/>
   <path transform="matrix(-1.2616,1.134,-1.1339,-1.2617,317.25,-81.593)" d="m167.55-14.271h0.26459v2.1167h-0.26459z" filter="url(#filter1134)"/>
   <path transform="matrix(-1.3782 .98906 -.98904 -1.3782 317.25 -81.593)" d="m168.9-32.758h0.26458v2.1167h-0.26458z" filter="url(#filter1134)"/>
   <path transform="matrix(-1.5497 .68994 -.68994 -1.5497 317.25 -81.593)" d="m166.56-67.07h0.26458v2.1167h-0.26458z" filter="url(#filter1134)"/>
   <path transform="matrix(-1.6145 .52038 -.52038 -1.6146 317.25 -81.593)" d="m162.35-84.701h0.26458v2.1167h-0.26458z" filter="url(#filter1134)"/>
   <path transform="matrix(-1.6642 .32856 -.32856 -1.6643 317.25 -81.593)" d="m155.29-103.35h0.26458v2.1167h-0.26458z" filter="url(#filter1134)"/>
   <path transform="matrix(-1.6871 .17649 -.17648 -1.6872 317.25 -81.593)" d="m149.19-117.2h0.26458v2.1167h-0.26458z" filter="url(#filter1134)"/>
   <path transform="matrix(1.6871 .17649 .17648 -1.6872 317.25 -81.593)" d="m-129.75-146.37h0.26458v2.1167h-0.26458z" filter="url(#filter1134)"/>
   <path transform="matrix(1.6642 .32856 .32856 -1.6643 317.25 -81.593)" d="m-119.86-157.68h0.26458v2.1167h-0.26458z" filter="url(#filter1134)"/>
   <path transform="matrix(1.6145 .52038 .52038 -1.6146 317.25 -81.593)" d="m-104.58-170.75h0.26459v2.1167h-0.26459z" filter="url(#filter1134)"/>
   <path transform="matrix(1.5497 .68994 .68994 -1.5497 317.25 -81.593)" d="m-89.653-181.15h0.26458v2.1167h-0.26458z" filter="url(#filter1134)"/>
   <path transform="matrix(1.3782 .98906 .98904 -1.3782 317.25 -81.593)" d="m-58.958-196.27h0.26458v2.1167h-0.26458z" filter="url(#filter1134)"/>
   <path transform="matrix(1.2616,1.134,1.1339,-1.2617,317.25,-81.593)" d="m-41.04-201.74h0.26458v2.1167h-0.26458z" filter="url(#filter1134)"/>
   <path transform="matrix(1.1349,1.2608,1.2608,-1.135,317.25,-81.593)" d="m-23.437-205.13h0.26458v2.1167h-0.26458z" filter="url(#filter1134)"/>
   <path transform="matrix(1.023,1.3532,1.3531,-1.023,317.25,-81.593)" d="m-9.7146-206.49h0.26458v2.1167h-0.26458z" filter="url(#filter1134)"/>
   <path transform="matrix(.6954 1.5473 1.5472 -.69542 317.25 -81.593)" d="m28.789-204.22h0.26458v2.1167h-0.26458z" filter="url(#filter1134)"/>
   <path transform="matrix(.53372 1.6102 1.6102 -.53372 317.25 -81.593)" d="m45.587-200.39h0.26458v2.1167h-0.26458z" filter="url(#filter1134)"/>
   <path transform="matrix(-.31382 1.6671 -1.6671 -.31382 317.25 -81.593)" d="m119.89 82.818h0.26459v2.1167h-0.26459z" filter="url(#filter1134)"/>
   <path transform="matrix(.17672 1.6871 1.6871 -.17672 317.25 -81.593)" d="m79.628-186.78h0.26458v2.1167h-0.26458z" filter="url(#filter1134)"/>
   <path transform="matrix(.34964 1.6599 1.6599 -.34966 317.25 -81.593)" d="m63.865-194.2h0.26458v2.1167h-0.26458z" filter="url(#filter1134)"/>
   <path transform="matrix(-.84816 -1.4691 -1.4691 .84818 317.25 -81.593)" d="m-12.295 130.23h0.46772v3.3676h-0.46772z" filter="url(#filter1134)"/>
   <path transform="matrix(-.84816 1.4691 -1.4691 -.84818 317.25 -81.593)" d="m152.06 109.29h0.46772v3.3676h-0.46772z" filter="url(#filter1134)"/>
   <path transform="matrix(-1.4691 .84818 -.84816 -1.4691 317.25 -81.593)" d="m168.65 23.238h0.46772v3.3676h-0.46772z" filter="url(#filter1134)"/>
   <path transform="matrix(-1.4691 -.84818 -.84816 1.4691 317.25 -81.593)" d="m73.764 113.64h0.46772v3.3676h-0.46772z" filter="url(#filter1134)"/>
   <path transform="matrix(-.17672 -1.6871 -1.6871 .17672 317.25 -81.593)" d="m-79.883 111.92h0.26458v2.1167h-0.26458z" filter="url(#filter1134)"/>
   <path transform="matrix(-.31382 -1.6671 -1.6671 .31382 317.25 -81.593)" d="m-66.591 117.92h0.26458v2.1167h-0.26458z" filter="url(#filter1134)"/>
   <path transform="matrix(-.53372 -1.6102 -1.6102 .53372 317.25 -81.593)" d="m-46.297 125.52h0.26458v2.1167h-0.26458z" filter="url(#filter1134)"/>
   <path transform="matrix(-.6954 -1.5473 -1.5472 .69542 317.25 -81.593)" d="m-29.324 129.35h0.26458v2.1167h-0.26458z" filter="url(#filter1134)"/>
   <path transform="matrix(-1.023,-1.3532,-1.3531,1.023,317.25,-81.593)" d="m8.053 131.67h0.26458v2.1167h-0.26458z" filter="url(#filter1134)"/>
   <path transform="matrix(-1.1349,-1.2608,-1.2608,1.135,317.25,-81.593)" d="m23.168 130.26h0.26458v2.1167h-0.26458z" filter="url(#filter1134)"/>
   <path transform="matrix(-1.2616,-1.134,-1.1339,1.2617,317.25,-81.593)" d="m40.7 126.86h0.26458v2.1167h-0.26458z" filter="url(#filter1134)"/>
   <path transform="matrix(-1.3782 -.98906 -.98904 1.3782 317.25 -81.593)" d="m58.258 121.41h0.26458v2.1167h-0.26458z" filter="url(#filter1134)"/>
   <path transform="matrix(-1.5497 -.68994 -.68994 1.5497 317.25 -81.593)" d="m89.381 106.29h0.26458v2.1167h-0.26458z" filter="url(#filter1134)"/>
   <path transform="matrix(-1.6145 -.52038 -.52038 1.6146 317.25 -81.593)" d="m104.14 95.911h0.26459v2.1167h-0.26459z" filter="url(#filter1134)"/>
   <path transform="matrix(-1.6642 -.32856 -.32856 1.6643 317.25 -81.593)" d="m118.53 82.815h0.26458v2.1167h-0.26458z" filter="url(#filter1134)"/>
   <path transform="matrix(-1.6871 -.17649 -.17648 1.6872 317.25 -81.593)" d="m129.45 71.535h0.26459v2.1167h-0.26459z" filter="url(#filter1134)"/>
   <path transform="matrix(1.6871 -.17649 .17648 1.6872 317.25 -81.593)" d="m-149.49 42.36h0.26458v2.1167h-0.26458z" filter="url(#filter1134)"/>
   <path transform="matrix(1.6642 -.32856 .32856 1.6643 317.25 -81.593)" d="m-156.61 28.49h0.26458v2.1167h-0.26458z" filter="url(#filter1134)"/>
   <path transform="matrix(1.6145 -.52038 .52038 1.6146 317.25 -81.593)" d="m-162.79 9.8568h0.26458v2.1167h-0.26458z" filter="url(#filter1134)"/>
   <path transform="matrix(1.5497 -.68994 .68994 1.5497 317.25 -81.593)" d="m-166.83-7.7888h0.26459v2.1167h-0.26459z" filter="url(#filter1134)"/>
   <path transform="matrix(1.3782 -.98906 .98904 1.3782 317.25 -81.593)" d="m-169.6-42.105h0.26458v2.1167h-0.26458z" filter="url(#filter1134)"/>
   <path transform="matrix(1.2616,-1.134,1.1339,1.2617,317.25,-81.593)" d="m-167.89-60.607h0.26459v2.1167h-0.26459z" filter="url(#filter1134)"/>
   <path transform="matrix(1.1349,-1.2608,1.2608,1.135,317.25,-81.593)" d="m-164.47-78.176h0.26458v2.1167h-0.26458z" filter="url(#filter1134)"/>
   <path transform="matrix(1.023,-1.3532,1.3531,1.023,317.25,-81.593)" d="m-161.08-92.051h0.26458v2.1167h-0.26458z" filter="url(#filter1134)"/>
   <path transform="matrix(.6954 -1.5473 1.5472 .69542 317.25 -81.593)" d="m-144.29-126.43h0.26459v2.1167h-0.26459z" filter="url(#filter1134)"/>
   <path transform="matrix(.53372 -1.6102 1.6102 .53372 317.25 -81.593)" d="m-134.54-140.69h0.26458v2.1167h-0.26458z" filter="url(#filter1134)"/>
   <path transform="matrix(-.31382 -1.6671 -1.6671 .31382 317.25 -81.593)" d="m-66.591 117.92h0.26458v2.1167h-0.26458z" filter="url(#filter1134)"/>
   <path transform="matrix(.17672 -1.6871 1.6871 .17672 317.25 -81.593)" d="m-109.1-167.01h0.26458v2.1167h-0.26458z" filter="url(#filter1134)"/>
   <path transform="matrix(.34964 -1.6599 1.6599 .34966 317.25 -81.593)" d="m-121.82-155.09h0.26458v2.1167h-0.26458z" filter="url(#filter1134)"/>
   <g transform="matrix(0,1.6964,-1.6963,0,317.25,-81.593)" filter="url(#filter1134)" stroke-width=".48121" aria-label="12">
    <path d="m93.683 111.04h-2.2632v-0.17106h0.48686q0.20614 0 0.27194-0.0702 0.07018-0.0746 0.07018-0.28071v-4.4826q-0.49563 0.43423-1.1228 0.73686l-0.07456-0.12281q0.34211-0.22807 0.79388-0.61843 0.5044-0.443 0.68861-0.71493h0.3158v5.2106q0 0.20615 0.06579 0.27633 0.06579 0.0658 0.26755 0.0658h0.50001z"/>
    <path d="m98.692 109.79-0.17106 1.2588h-3.5966v-0.14475q0.35527-0.45176 0.98248-1.0746 0.93862-0.92985 1.0351-1.0351 0.84213-0.89037 0.84213-1.75 0-0.69739-0.58335-1.0483-0.27194-0.1579-0.60528-0.1579-0.5044 0-0.89914 0.36843-0.35966 0.33334-0.50878 0.84651h-0.14474q0.08772-0.78072 0.58773-1.2544 0.50001-0.47369 1.2281-0.47369 0.97371 0 1.4386 0.77633 0.21492 0.36843 0.21492 0.81581 0 0.78072-0.64914 1.4386l-0.83774 0.70615q-0.75002 0.62721-1.522 1.4299h2.3597q0.43422 0 0.54826-0.25 0.0614-0.13158 0.13597-0.45177z"/>
   </g>
   <g stroke-width=".26458">
    <g transform="matrix(0,1.6964,-1.6963,0,317.25,-81.593)" filter="url(#filter1134)" aria-label="3">
     <path d="m129.78 141.05q0 0.56142-0.33334 1.0614-0.31141 0.46931-0.82458 0.75002-0.52633 0.29386-1.1141 0.29386-0.76756 0-1.1711-0.32456-0.18422-0.14474-0.18422-0.3158 0-0.11404 0.079-0.20615 0.0833-0.0965 0.19737-0.0965 0.13597 0 0.48247 0.25001l0.48247 0.35088q0.15351 0.0965 0.42106 0.0965 0.72809 0 1.1141-0.8158 0.17545-0.37282 0.17545-0.80704 0-0.47808-0.24562-0.83774-0.27633-0.41229-0.73248-0.41229-0.32018 0-0.6272 0.24123l-0.0833-0.12281q0.45177-0.38158 0.58335-0.50878 0.34211-0.32018 0.50001-0.58773 0.14035-0.23247 0.14035-0.46931 0-0.35527-0.25877-0.58774-0.25878-0.23684-0.61405-0.23684-0.37282 0-0.71493 0.27193-0.30264 0.24124-0.47808 0.60967l-0.16229-0.0658q0.31141-0.79826 0.98248-1.1228 0.32018-0.15351 0.67984-0.15351 0.693 0 1.0176 0.49562 0.14913 0.23247 0.14913 0.5044 0 0.7237-0.92547 1.2676l0.0175 0.0175q0.0658-9e-3 0.13158-9e-3 0.7544 0 1.1272 0.71054 0.1886 0.35966 0.1886 0.75879z" stroke-width=".26458"/>
    </g>
    <g transform="matrix(0,1.6964,-1.6963,0,317.25,-81.593)" filter="url(#filter1134)" aria-label="6">
     <path d="m96.688 173.32q0 1.0307-0.87721 1.5658-0.4079 0.25-0.87721 0.25-0.63159 0-1.1053-0.40352-0.43861-0.37281-0.63598-0.99563-0.13597-0.42545-0.13597-0.93862 0-1.3202 0.8816-2.2764 0.80265-0.86406 2.1272-1.2369l0.10088 0.13596q-1.3992 0.56581-1.9606 1.5965-0.28509 0.51756-0.38597 1.1711 0.67984-0.52194 1.2763-0.52194 0.9123 0 1.3772 0.82458 0.21492 0.38598 0.21492 0.82897zm-0.67546 0.0789q0-0.59212-0.22369-1.0044-0.28071-0.51317-0.82897-0.51317-0.50878 0-1.1842 0.53949-0.04386 0.21053-0.04386 0.55703 0 0.75879 0.23246 1.2895 0.3158 0.71493 0.98686 0.71493 0.57019 0 0.84651-0.53949 0.21492-0.41667 0.21492-1.0439z" stroke-width=".26458"/>
    </g>
    <g transform="matrix(0,1.6964,-1.6963,0,317.25,-81.593)" filter="url(#filter1134)" aria-label="1">
     <path d="m112.32 115.15h-2.2632v-0.17106h0.48686q0.20614 0 0.27193-0.0702 0.0702-0.0746 0.0702-0.28071v-4.4826q-0.49563 0.43422-1.1228 0.73686l-0.0746-0.12281q0.34212-0.22808 0.79388-0.61844 0.5044-0.44299 0.68861-0.71492h0.3158v5.2106q0 0.20614 0.0658 0.27632 0.0658 0.0658 0.26755 0.0658h0.50001z" stroke-width=".26458"/>
    </g>
    <g transform="matrix(0,1.6964,-1.6963,0,317.25,-81.593)" filter="url(#filter1134)" aria-label="2">
     <path d="m124.99 125.53-0.17106 1.2588h-3.5966v-0.14474q0.35527-0.45176 0.98248-1.0746 0.93861-0.92985 1.0351-1.0351 0.84212-0.89037 0.84212-1.75 0-0.69738-0.58334-1.0483-0.27194-0.1579-0.60528-0.1579-0.5044 0-0.89915 0.36843-0.35965 0.33334-0.50878 0.84652h-0.14474q0.0877-0.78073 0.58773-1.2544 0.50002-0.4737 1.2281-0.4737 0.97371 0 1.4386 0.77634 0.21492 0.36843 0.21492 0.81581 0 0.78072-0.64914 1.4386l-0.83774 0.70615q-0.75001 0.62721-1.522 1.4299h2.3597q0.43422 0 0.54826-0.25 0.0614-0.13158 0.13597-0.45177z" stroke-width=".26458"/>
    </g>
    <g transform="matrix(0,1.6964,-1.6963,0,317.25,-81.593)" filter="url(#filter1134)" aria-label="4">
     <path d="m125.02 157.7h-0.89915v1.7632h-0.60089v-1.7632h-2.2983v-0.20615l2.6492-3.8817h0.25v3.6404h0.89915zm-1.5-0.44738-0.0175-2.7852-1.8597 2.7852z" stroke-width=".26458"/>
    </g>
    <g transform="matrix(0,1.6964,-1.6963,0,317.25,-81.593)" filter="url(#filter1134)" aria-label="5">
     <path d="m112.67 169.11q0 1.1228-1.0351 1.6623-0.48685 0.2544-1.079 0.2544-0.39036 0-0.77195-0.10966-0.53948-0.15789-0.53948-0.45615 0-0.28071 0.29825-0.28071 0.22807 0 0.57019 0.30264 0.35966 0.32896 0.64914 0.32896 0.69738 0 1.0658-0.76318 0.16667-0.3465 0.16667-0.75002 0-0.6272-0.38159-1.0263-0.38158-0.39913-0.95616-0.39913-0.52633 0-0.95178 0.33334l-0.0921-0.0658 0.12719-2.8466h2.1272q0.19737 0 0.26316-0.11842h0.17106l-0.10088 0.70177h-2.272l-0.0702 1.6185q0.40351-0.22369 0.96932-0.22369 0.76317 0 1.2983 0.53949 0.54388 0.55264 0.54388 1.2983z" stroke-width=".26458"/>
    </g>
    <g transform="matrix(0,1.6964,-1.6963,0,317.25,-81.593)" filter="url(#filter1134)" aria-label="7">
     <path d="m80.464 165.65-2.193 5.5264h-0.49124l2.1711-5.1317h-2.4694q-0.27632 0-0.3772 0.12281-0.07895 0.0965-0.11404 0.39913h-0.14474l0.0614-1.1053h3.5571z" stroke-width=".26458"/>
    </g>
    <g transform="matrix(0,1.6964,-1.6963,0,317.25,-81.593)" filter="url(#filter1134)" aria-label="8">
     <path d="m68.481 157.75q0 0.96494-0.87283 1.4342-0.4079 0.2193-0.89476 0.2193-1.0088 0-1.5132-0.73686-0.23246-0.33773-0.23246-0.73686 0-0.94739 1.3027-1.4737-1.2281-0.54826-1.2281-1.4474 0-0.82897 0.82897-1.2588 0.38159-0.19737 0.81581-0.19737 0.68423 0 1.1492 0.3772 0.46492 0.37281 0.46492 0.91669 0 0.85089-1.1667 1.3114 1.3465 0.60089 1.3465 1.5921zm-0.71932-2.9124q0-0.66229-0.52633-0.97809-0.25001-0.14474-0.55703-0.14474-0.63598 0-0.95616 0.50001-0.14913 0.23685-0.14913 0.51756 0 0.51317 0.54826 0.88598 0.30702 0.21054 0.88599 0.46054 0.7544-0.47369 0.7544-1.2413zm0.14474 3.1624q0-0.52194-0.50001-0.92107-0.28948-0.23247-0.95616-0.53511-0.91669 0.50002-0.91669 1.3685 0 0.55264 0.3158 0.92984 0.33334 0.39914 0.87283 0.39914 0.69738 0 1.0307-0.61405 0.15351-0.2851 0.15351-0.62721z" stroke-width=".26458"/>
    </g>
    <g transform="matrix(0,1.6964,-1.6963,0,317.25,-81.593)" filter="url(#filter1134)" aria-label="10">
     <path d="m66.946 127.6h-2.2632v-0.17105h0.48685q0.20615 0 0.27194-0.0702 0.07018-0.0746 0.07018-0.28071v-4.4826q-0.49563 0.43422-1.1228 0.73686l-0.07456-0.12281q0.34211-0.22808 0.79388-0.61844 0.5044-0.44299 0.68861-0.71493h0.3158v5.2106q0 0.20615 0.06579 0.27633 0.06579 0.0658 0.26755 0.0658h0.50001z"/>
     <path d="m71.99 124.81q0 1.7018-0.93862 2.5352-0.43422 0.38597-0.92985 0.38597-0.54387 0-1-0.45615-0.3772-0.3772-0.60528-0.95616-0.26755-0.67546-0.26755-1.5088 0-1.7106 0.94739-2.5483 0.43422-0.38159 0.92546-0.38159 0.78072 0 1.3246 0.87283 0.54387 0.86844 0.54387 2.0571zm-0.67546 0q0-1.1404-0.13597-1.693-0.26316-1.0658-1.057-1.0658-0.85967 0-1.0877 1.2895-0.10965 0.61844-0.10965 1.4693 0 1.1097 0.14474 1.6799 0.27194 1.0702 1.0527 1.0702 0.8816 0 1.0921-1.2632 0.10088-0.60528 0.10088-1.4869z"/>
    </g>
    <g transform="matrix(0,1.6964,-1.6963,0,317.25,-81.593)" filter="url(#filter1134)" aria-label="11">
     <path d="m78.212 115.77h-2.2632v-0.17106h0.48685q0.20614 0 0.27194-0.0702 0.07018-0.0746 0.07018-0.28071v-4.4826q-0.49563 0.43422-1.1228 0.73686l-0.07456-0.12281q0.34211-0.22808 0.79388-0.61844 0.5044-0.44299 0.68861-0.71493h0.3158v5.2107q0 0.20614 0.06579 0.27632 0.06579 0.0658 0.26755 0.0658h0.50001z"/>
     <path d="m82.616 115.77h-2.2632v-0.17106h0.48685q0.20614 0 0.27194-0.0702 0.07018-0.0746 0.07018-0.28071v-4.4826q-0.49563 0.43422-1.1228 0.73686l-0.07456-0.12281q0.34211-0.22808 0.79388-0.61844 0.5044-0.44299 0.68861-0.71493h0.3158v5.2107q0 0.20614 0.06579 0.27632 0.06579 0.0658 0.26755 0.0658h0.50001z"/>
    </g>
   </g>
   <path transform="matrix(-1.6963,0,0,1.6964,317.25,-81.593)" d="m139.81 56.255h0.8419v3.3676h-0.8419z" filter="url(#filter1134)"/>
  </g>
 </g>
</svg>
