<svg width="87.312mm" height="6.6146mm" version="1.1" viewBox="0 0 87.312 6.6146" xmlns="http://www.w3.org/2000/svg">
 <g transform="matrix(0 1.0077 -1.1331 0 198.06 -125.47)">
  <path transform="matrix(.26458 0 0 .26458 48.081 93.436)" d="m301.23 16.264-5.1172 48.242h2.543v226.03h0.0723a4.1349 4.294 0.29396 0 0-1.5664 3.3418 4.1349 4.294 0.29396 0 0-4.1562 4.2734 4.1349 4.294 0.29396 0 0-4.1582 4.2715 4.1349 4.294 0.29396 0 0 4.1133 4.3164 4.1349 4.294 0.29396 0 0 4.1562-4.2734 4.1349 4.294 0.29396 0 0 2.7656-1.0879l-0.0293 6.1191 2.7559 0.0137 0.0293-6.1094a4.1349 4.294 0.29396 0 0 2.7461 1.1074 4.1349 4.294 0.29396 0 0 4.1133 4.3145 4.1349 4.294 0.29396 0 0 4.1582-4.2715 4.1349 4.294 0.29396 0 0-4.1133-4.3164 4.1349 4.294 0.29396 0 0-4.1133-4.3145 4.1349 4.294 0.29396 0 0-1.5391-3.3633l-2.7461-0.0176 2.6621 4e-3v-226.04h2.543z" fill="#000080" stroke-width="1.2413"/>
 </g>
</svg>
